<svg width="462" height="301" viewBox="0 0 462 301" fill="none" xmlns="http://www.w3.org/2000/svg">
    <path
        d="M461.629 151.219C461.629 233.57 377.333 300.313 273.347 300.313C169.36 300.313 85.0645 233.57 85.0645 151.219C85.0645 68.8822 169.358 2.13281 273.347 2.13281C377.335 2.13281 461.629 68.8822 461.629 151.219Z"
        stroke="#ECE3FF" stroke-width="0.5" stroke-miterlimit="10" />
    <path
        d="M461.613 151.219C461.613 233.57 397.289 300.313 317.94 300.313C238.591 300.313 174.267 233.57 174.267 151.219C174.267 68.8822 238.589 2.13281 317.94 2.13281C397.291 2.13281 461.613 68.8822 461.613 151.219Z"
        stroke="#ECE3FF" stroke-width="0.5" stroke-miterlimit="10" />
    <path
        d="M377.653 150.087C377.653 232.437 293.357 299.181 189.371 299.181C85.3846 299.181 1.08887 232.437 1.08887 150.087C1.08887 67.7494 85.3828 1 189.371 1C293.359 1 377.653 67.7494 377.653 150.087Z"
        stroke="#D4BDFF" stroke-width="0.5" stroke-miterlimit="10" />
    <path
        d="M374.54 300.158C314.242 300.158 265.361 233.454 265.361 151.152C265.361 68.8641 314.24 2.1543 374.54 2.1543"
        stroke="#D4BDFF" stroke-width="0.5" stroke-miterlimit="10" />
    <path
        d="M375.744 172.434C328.713 172.434 290.596 134.313 290.596 87.2872C290.596 40.2616 328.713 2.14062 375.744 2.14062C422.766 2.14062 460.887 40.2608 460.887 87.2872C460.887 134.314 422.766 172.434 375.744 172.434Z"
        stroke="#D4BDFF" stroke-width="0.5" stroke-miterlimit="10" />
    <path
        d="M460.89 278.87C460.89 290.627 422.768 300.156 375.742 300.156C328.716 300.156 290.595 290.627 290.595 278.87C290.595 267.114 328.715 257.584 375.742 257.584C422.769 257.584 460.89 267.114 460.89 278.87Z"
        stroke="#D4BDFF" stroke-width="0.5" stroke-miterlimit="10" />
    <path
        d="M460.89 215.007C460.89 238.522 422.768 257.58 375.742 257.58C328.716 257.58 290.595 238.522 290.595 215.007C290.595 191.496 328.715 172.436 375.742 172.436C422.769 172.436 460.89 191.496 460.89 215.007Z"
        stroke="#ECE3FF" stroke-width="0.5" stroke-miterlimit="10" />
</svg>