<svg width="867" height="330" viewBox="0 0 867 330" fill="none" xmlns="http://www.w3.org/2000/svg">
<g opacity="0.6">
<mask id="mask0_2762_5466" style="mask-type:alpha" maskUnits="userSpaceOnUse" x="0" y="0" width="867" height="330">
<path d="M0 7.99999C0 3.58171 3.58172 0 8 0H859C863.418 0 867 3.58172 867 8V322C867 326.418 863.418 330 859 330H8C3.58172 330 0 326.418 0 322V7.99999Z" fill="#6753F1"/>
</mask>
<g mask="url(#mask0_2762_5466)">
<g opacity="0.6">
<g opacity="0.3" filter="url(#filter0_df_2762_5466)">
<path d="M690.031 -166.555C589.789 -25.4659 503.299 -112.316 379.677 70.599C256.054 253.514 333.822 505.825 504.281 644.331C674.741 782.837 825.956 686.241 969.598 470.752C1113.24 255.264 1126.47 -64.4611 1068.7 -194.282C1010.93 -324.102 843.576 -360.231 690.031 -166.555Z" fill="url(#paint0_radial_2762_5466)"/>
<path d="M690.031 -166.555C589.789 -25.4659 503.299 -112.316 379.677 70.599C256.054 253.514 333.822 505.825 504.281 644.331C674.741 782.837 825.956 686.241 969.598 470.752C1113.24 255.264 1126.47 -64.4611 1068.7 -194.282C1010.93 -324.102 843.576 -360.231 690.031 -166.555Z" stroke="url(#paint1_radial_2762_5466)" stroke-width="0.917947" stroke-miterlimit="10"/>
</g>
<g opacity="0.2" filter="url(#filter1_df_2762_5466)">
<path d="M628.224 -256.255C513.187 -94.342 413.932 -194.01 272.065 15.9021C130.197 225.814 219.443 515.363 415.061 674.31C610.679 833.258 784.212 722.405 949.054 475.112C1113.9 227.818 1129.08 -139.095 1062.78 -288.075C996.485 -437.056 804.43 -478.516 628.224 -256.255Z" fill="url(#paint2_radial_2762_5466)"/>
<path d="M628.224 -256.255C513.187 -94.342 413.932 -194.01 272.065 15.9021C130.197 225.814 219.443 515.363 415.061 674.31C610.679 833.258 784.212 722.405 949.054 475.112C1113.9 227.818 1129.08 -139.095 1062.78 -288.075C996.485 -437.056 804.43 -478.516 628.224 -256.255Z" stroke="url(#paint3_radial_2762_5466)" stroke-width="0.917947" stroke-miterlimit="10"/>
</g>
<g opacity="0.4" filter="url(#filter2_df_2762_5466)">
<path d="M758.439 -122.9C672.85 -18.1823 607.267 -94.2906 501.363 41.9684C395.459 178.227 447.524 385.697 578.071 509.629C708.618 633.561 833.124 568.358 956.296 407.677C1079.47 246.995 1102.69 -7.12132 1061.73 -115.265C1020.78 -223.409 888.649 -265.396 758.439 -122.9Z" fill="url(#paint4_radial_2762_5466)"/>
<path d="M758.439 -122.9C672.85 -18.1823 607.267 -94.2906 501.363 41.9684C395.459 178.227 447.524 385.697 578.071 509.629C708.618 633.561 833.124 568.358 956.296 407.677C1079.47 246.995 1102.69 -7.12132 1061.73 -115.265C1020.78 -223.409 888.649 -265.396 758.439 -122.9Z" stroke="url(#paint5_radial_2762_5466)" stroke-width="0.917947" stroke-miterlimit="10"/>
</g>
<g opacity="0.5" filter="url(#filter3_df_2762_5466)">
<path d="M811.286 -82.6828C738.832 -5.83972 689.51 -71.7326 599.593 28.6854C509.677 129.103 543.008 298.767 642.28 407.931C741.553 517.096 843.498 474.846 948.163 356.295C1052.83 237.744 1081.43 36.7717 1053.03 -52.7519C1024.63 -142.276 920.846 -186.167 811.286 -82.6828Z" fill="url(#paint6_radial_2762_5466)"/>
<path d="M811.286 -82.6828C738.832 -5.83972 689.51 -71.7326 599.593 28.6854C509.677 129.103 543.008 298.767 642.28 407.931C741.553 517.096 843.498 474.846 948.163 356.295C1052.83 237.744 1081.43 36.7717 1053.03 -52.7519C1024.63 -142.276 920.846 -186.167 811.286 -82.6828Z" stroke="#6753F1" stroke-width="0.917947" stroke-miterlimit="10"/>
<path d="M811.286 -82.6828C738.832 -5.83972 689.51 -71.7326 599.593 28.6854C509.677 129.103 543.008 298.767 642.28 407.931C741.553 517.096 843.498 474.846 948.163 356.295C1052.83 237.744 1081.43 36.7717 1053.03 -52.7519C1024.63 -142.276 920.846 -186.167 811.286 -82.6828Z" stroke="url(#paint7_radial_2762_5466)" stroke-width="0.917947" stroke-miterlimit="10"/>
</g>
<g opacity="0.6" filter="url(#filter4_df_2762_5466)">
<path d="M851.885 -46.4367C791.018 9.19345 754.267 -47.269 678.531 25.8026C602.794 98.8742 622.671 236.894 697.57 331.815C772.47 426.737 855.501 401.032 943.726 314.649C1031.95 228.265 1062.74 70.1267 1043.62 -3.55015C1024.5 -77.2269 943.42 -120.412 851.885 -46.4367Z" fill="url(#paint8_radial_2762_5466)"/>
<path d="M851.885 -46.4367C791.018 9.19345 754.267 -47.269 678.531 25.8026C602.794 98.8742 622.671 236.894 697.57 331.815C772.47 426.737 855.501 401.032 943.726 314.649C1031.95 228.265 1062.74 70.1267 1043.62 -3.55015C1024.5 -77.2269 943.42 -120.412 851.885 -46.4367Z" stroke="#6753F1" stroke-width="0.917947" stroke-miterlimit="10"/>
<path d="M851.885 -46.4367C791.018 9.19345 754.267 -47.269 678.531 25.8026C602.794 98.8742 622.671 236.894 697.57 331.815C772.47 426.737 855.501 401.032 943.726 314.649C1031.95 228.265 1062.74 70.1267 1043.62 -3.55015C1024.5 -77.2269 943.42 -120.412 851.885 -46.4367Z" stroke="url(#paint9_radial_2762_5466)" stroke-width="0.917947" stroke-miterlimit="10"/>
</g>
<g opacity="0.7" filter="url(#filter5_df_2762_5466)">
<path d="M882.836 -14.3081C832.058 25.3036 804.966 -22.6447 741.629 29.7175C678.292 82.0798 688.686 193.789 744.698 275.428C800.711 357.067 867.992 343.079 941.823 281.075C1015.65 219.07 1046.49 95.2879 1034.15 34.9873C1021.81 -25.3133 958.817 -66.1496 882.836 -14.3081Z" fill="url(#paint10_radial_2762_5466)"/>
<path d="M882.836 -14.3081C832.058 25.3036 804.966 -22.6447 741.629 29.7175C678.292 82.0798 688.686 193.789 744.698 275.428C800.711 357.067 867.992 343.079 941.823 281.075C1015.65 219.07 1046.49 95.2879 1034.15 34.9873C1021.81 -25.3133 958.817 -66.1496 882.836 -14.3081Z" stroke="#6753F1" stroke-width="0.917947" stroke-miterlimit="10"/>
<path d="M882.836 -14.3081C832.058 25.3036 804.966 -22.6447 741.629 29.7175C678.292 82.0798 688.686 193.789 744.698 275.428C800.711 357.067 867.992 343.079 941.823 281.075C1015.65 219.07 1046.49 95.2879 1034.15 34.9873C1021.81 -25.3133 958.817 -66.1496 882.836 -14.3081Z" stroke="url(#paint11_radial_2762_5466)" stroke-width="0.917947" stroke-miterlimit="10"/>
</g>
<g opacity="0.8" filter="url(#filter6_df_2762_5466)">
<path d="M906.272 13.7534C864.178 41.3746 844.457 0.979993 791.836 37.7897C739.215 74.5995 743.084 164.566 784.55 234.12C826.016 303.675 880.265 297.8 941.642 254.12C1003.02 210.44 1032.54 114.079 1025.08 64.9866C1017.62 15.8938 968.963 -21.647 906.272 13.7534Z" fill="url(#paint12_radial_2762_5466)"/>
<path d="M906.272 13.7534C864.178 41.3746 844.457 0.979993 791.836 37.7897C739.215 74.5995 743.084 164.566 784.55 234.12C826.016 303.675 880.265 297.8 941.642 254.12C1003.02 210.44 1032.54 114.079 1025.08 64.9866C1017.62 15.8938 968.963 -21.647 906.272 13.7534Z" stroke="#6753F1" stroke-width="0.917947" stroke-miterlimit="10"/>
<path d="M906.272 13.7534C864.178 41.3746 844.457 0.979993 791.836 37.7897C739.215 74.5995 743.084 164.566 784.55 234.12C826.016 303.675 880.265 297.8 941.642 254.12C1003.02 210.44 1032.54 114.079 1025.08 64.9866C1017.62 15.8938 968.963 -21.647 906.272 13.7534Z" stroke="url(#paint13_radial_2762_5466)" stroke-width="0.917947" stroke-miterlimit="10"/>
</g>
<g opacity="0.7" filter="url(#filter7_df_2762_5466)">
<path d="M923.853 37.9951C889.165 56.7299 875.028 22.943 831.575 48.1832C788.122 73.4234 787.645 145.525 817.981 204.292C848.317 263.06 891.843 262.635 942.556 232.6C993.269 202.565 1020.64 127.984 1016.64 88.2196C1012.63 48.4549 975.286 14.6711 923.853 37.9951Z" fill="url(#paint14_radial_2762_5466)"/>
<path d="M923.853 37.9951C889.165 56.7299 875.028 22.943 831.575 48.1832C788.122 73.4234 787.645 145.525 817.981 204.292C848.317 263.06 891.843 262.635 942.556 232.6C993.269 202.565 1020.64 127.984 1016.64 88.2196C1012.63 48.4549 975.286 14.6711 923.853 37.9951Z" stroke="#6753F1" stroke-width="0.917947" stroke-miterlimit="10"/>
<path d="M923.853 37.9951C889.165 56.7299 875.028 22.943 831.575 48.1832C788.122 73.4234 787.645 145.525 817.981 204.292C848.317 263.06 891.843 262.635 942.556 232.6C993.269 202.565 1020.64 127.984 1016.64 88.2196C1012.63 48.4549 975.286 14.6711 923.853 37.9951Z" stroke="url(#paint15_radial_2762_5466)" stroke-width="0.917947" stroke-miterlimit="10"/>
</g>
<g opacity="0.6" filter="url(#filter8_df_2762_5466)">
<path d="M936.932 58.7094C908.507 70.9344 898.563 42.8595 862.886 59.5873C827.208 76.3151 823.97 133.818 845.852 183.102C867.733 232.386 902.486 235.468 944.147 215.484C985.809 195.501 1010.61 138.133 1008.99 106.084C1007.37 74.0343 978.902 44.1381 936.932 58.7094Z" fill="url(#paint16_radial_2762_5466)"/>
<path d="M936.932 58.7094C908.507 70.9344 898.563 42.8595 862.886 59.5873C827.208 76.3151 823.97 133.818 845.852 183.102C867.733 232.386 902.486 235.468 944.147 215.484C985.809 195.501 1010.61 138.133 1008.99 106.084C1007.37 74.0343 978.902 44.1381 936.932 58.7094Z" stroke="#6753F1" stroke-width="0.917947" stroke-miterlimit="10"/>
<path d="M936.932 58.7094C908.507 70.9344 898.563 42.8595 862.886 59.5873C827.208 76.3151 823.97 133.818 845.852 183.102C867.733 232.386 902.486 235.468 944.147 215.484C985.809 195.501 1010.61 138.133 1008.99 106.084C1007.37 74.0343 978.902 44.1381 936.932 58.7094Z" stroke="url(#paint17_radial_2762_5466)" stroke-width="0.917947" stroke-miterlimit="10"/>
</g>
<g opacity="0.4" filter="url(#filter9_df_2762_5466)">
<path d="M946.542 76.2924C923.373 83.8145 916.55 60.6278 887.414 71.1733C858.279 81.7188 853.416 127.355 868.926 168.406C884.436 209.456 912.048 214.647 946.088 201.974C980.128 189.3 1002.19 145.467 1002.17 119.763C1002.14 94.0583 980.613 67.9625 946.542 76.2924Z" fill="url(#paint18_radial_2762_5466)"/>
<path d="M946.542 76.2924C923.373 83.8145 916.55 60.6278 887.414 71.1733C858.279 81.7188 853.416 127.355 868.926 168.406C884.436 209.456 912.048 214.647 946.088 201.974C980.128 189.3 1002.19 145.467 1002.17 119.763C1002.14 94.0583 980.613 67.9625 946.542 76.2924Z" stroke="#6753F1" stroke-width="0.917947" stroke-miterlimit="10"/>
<path d="M946.542 76.2924C923.373 83.8145 916.55 60.6278 887.414 71.1733C858.279 81.7188 853.416 127.355 868.926 168.406C884.436 209.456 912.048 214.647 946.088 201.974C980.128 189.3 1002.19 145.467 1002.17 119.763C1002.14 94.0583 980.613 67.9625 946.542 76.2924Z" stroke="url(#paint19_radial_2762_5466)" stroke-width="0.917947" stroke-miterlimit="10"/>
</g>
<g>
<path d="M922.777 93.8231C920.003 97.7937 919.653 101.407 920.137 105.644C920.852 111.903 916.761 117.182 912.362 115.842C898.122 111.504 886.414 105.791 881.08 116.725C875.802 127.544 874.423 150.776 891.043 155.362C896.076 156.75 918.667 147.268 917.089 172.241C918.527 190.128 929.601 196.6 940.352 185.482C958.532 166.679 980.839 159.513 977.995 139.607C975.151 119.701 961.484 124.584 951.927 111.542C942.37 98.5 930.058 83.4027 922.777 93.8231Z" fill="url(#paint20_radial_2762_5466)"/>
</g>
<path d="M922.777 93.8231C920.003 97.7937 919.653 101.407 920.137 105.644C920.852 111.903 916.761 117.182 912.362 115.842C898.122 111.504 886.414 105.791 881.08 116.725C875.802 127.544 874.423 150.776 891.043 155.362C896.076 156.75 918.667 147.268 917.089 172.241C918.527 190.128 929.601 196.6 940.352 185.482C958.532 166.679 980.839 159.513 977.995 139.607C975.151 119.701 961.484 124.584 951.927 111.542C942.37 98.5 930.058 83.4027 922.777 93.8231Z" stroke="#4728F5" stroke-width="0.458973" stroke-miterlimit="10"/>
<path d="M922.777 93.8231C920.003 97.7937 919.653 101.407 920.137 105.644C920.852 111.903 916.761 117.182 912.362 115.842C898.122 111.504 886.414 105.791 881.08 116.725C875.802 127.544 874.423 150.776 891.043 155.362C896.076 156.75 918.667 147.268 917.089 172.241C918.527 190.128 929.601 196.6 940.352 185.482C958.532 166.679 980.839 159.513 977.995 139.607C975.151 119.701 961.484 124.584 951.927 111.542C942.37 98.5 930.058 83.4027 922.777 93.8231Z" stroke="url(#paint21_radial_2762_5466)" stroke-width="0.458973" stroke-miterlimit="10"/>
</g>
</g>
</g>
<defs>
<filter id="filter0_df_2762_5466" x="309.542" y="-311.418" width="800.789" height="1029.97" filterUnits="userSpaceOnUse" color-interpolation-filters="sRGB">
<feFlood flood-opacity="0" result="BackgroundImageFix"/>
<feColorMatrix in="SourceAlpha" type="matrix" values="0 0 0 0 0 0 0 0 0 0 0 0 0 0 0 0 0 0 127 0" result="hardAlpha"/>
<feOffset/>
<feGaussianBlur stdDeviation="4.58974"/>
<feComposite in2="hardAlpha" operator="out"/>
<feColorMatrix type="matrix" values="0 0 0 0 0.403922 0 0 0 0 0.32549 0 0 0 0 0.945098 0 0 0 1 0"/>
<feBlend mode="normal" in2="BackgroundImageFix" result="effect1_dropShadow_2762_5466"/>
<feBlend mode="normal" in="SourceGraphic" in2="effect1_dropShadow_2762_5466" result="shape"/>
<feGaussianBlur stdDeviation="2.75384" result="effect2_foregroundBlur_2762_5466"/>
</filter>
<filter id="filter1_df_2762_5466" x="191.161" y="-422.908" width="919.814" height="1182.8" filterUnits="userSpaceOnUse" color-interpolation-filters="sRGB">
<feFlood flood-opacity="0" result="BackgroundImageFix"/>
<feColorMatrix in="SourceAlpha" type="matrix" values="0 0 0 0 0 0 0 0 0 0 0 0 0 0 0 0 0 0 127 0" result="hardAlpha"/>
<feOffset/>
<feGaussianBlur stdDeviation="4.58974"/>
<feComposite in2="hardAlpha" operator="out"/>
<feColorMatrix type="matrix" values="0 0 0 0 0.403922 0 0 0 0 0.32549 0 0 0 0 0.945098 0 0 0 1 0"/>
<feBlend mode="normal" in2="BackgroundImageFix" result="effect1_dropShadow_2762_5466"/>
<feBlend mode="normal" in="SourceGraphic" in2="effect1_dropShadow_2762_5466" result="shape"/>
<feGaussianBlur stdDeviation="5.50768" result="effect2_foregroundBlur_2762_5466"/>
</filter>
<filter id="filter2_df_2762_5466" x="435.054" y="-223.647" width="654.862" height="807.625" filterUnits="userSpaceOnUse" color-interpolation-filters="sRGB">
<feFlood flood-opacity="0" result="BackgroundImageFix"/>
<feColorMatrix in="SourceAlpha" type="matrix" values="0 0 0 0 0 0 0 0 0 0 0 0 0 0 0 0 0 0 127 0" result="hardAlpha"/>
<feOffset/>
<feGaussianBlur stdDeviation="4.58974"/>
<feComposite in2="hardAlpha" operator="out"/>
<feColorMatrix type="matrix" values="0 0 0 0 0.403922 0 0 0 0 0.32549 0 0 0 0 0.945098 0 0 0 1 0"/>
<feBlend mode="normal" in2="BackgroundImageFix" result="effect1_dropShadow_2762_5466"/>
<feBlend mode="normal" in="SourceGraphic" in2="effect1_dropShadow_2762_5466" result="shape"/>
<feGaussianBlur stdDeviation="2.29487" result="effect2_foregroundBlur_2762_5466"/>
</filter>
<filter id="filter3_df_2762_5466" x="537.576" y="-152.328" width="535.396" height="633.053" filterUnits="userSpaceOnUse" color-interpolation-filters="sRGB">
<feFlood flood-opacity="0" result="BackgroundImageFix"/>
<feColorMatrix in="SourceAlpha" type="matrix" values="0 0 0 0 0 0 0 0 0 0 0 0 0 0 0 0 0 0 127 0" result="hardAlpha"/>
<feOffset/>
<feGaussianBlur stdDeviation="4.58974"/>
<feComposite in2="hardAlpha" operator="out"/>
<feColorMatrix type="matrix" values="0 0 0 0 0.403922 0 0 0 0 0.32549 0 0 0 0 0.945098 0 0 0 1 0"/>
<feBlend mode="normal" in2="BackgroundImageFix" result="effect1_dropShadow_2762_5466"/>
<feBlend mode="normal" in="SourceGraphic" in2="effect1_dropShadow_2762_5466" result="shape"/>
<feGaussianBlur stdDeviation="1.83589" result="effect2_foregroundBlur_2762_5466"/>
</filter>
<filter id="filter4_df_2762_5466" x="621.023" y="-94.4959" width="437.648" height="496.324" filterUnits="userSpaceOnUse" color-interpolation-filters="sRGB">
<feFlood flood-opacity="0" result="BackgroundImageFix"/>
<feColorMatrix in="SourceAlpha" type="matrix" values="0 0 0 0 0 0 0 0 0 0 0 0 0 0 0 0 0 0 127 0" result="hardAlpha"/>
<feOffset/>
<feGaussianBlur stdDeviation="4.58974"/>
<feComposite in2="hardAlpha" operator="out"/>
<feColorMatrix type="matrix" values="0 0 0 0 0.403922 0 0 0 0 0.32549 0 0 0 0 0.945098 0 0 0 1 0"/>
<feBlend mode="normal" in2="BackgroundImageFix" result="effect1_dropShadow_2762_5466"/>
<feBlend mode="normal" in="SourceGraphic" in2="effect1_dropShadow_2762_5466" result="shape"/>
<feGaussianBlur stdDeviation="1.37692" result="effect2_foregroundBlur_2762_5466"/>
</filter>
<filter id="filter5_df_2762_5466" x="688.658" y="-47.6736" width="357.747" height="389.504" filterUnits="userSpaceOnUse" color-interpolation-filters="sRGB">
<feFlood flood-opacity="0" result="BackgroundImageFix"/>
<feColorMatrix in="SourceAlpha" type="matrix" values="0 0 0 0 0 0 0 0 0 0 0 0 0 0 0 0 0 0 127 0" result="hardAlpha"/>
<feOffset/>
<feGaussianBlur stdDeviation="4.58974"/>
<feComposite in2="hardAlpha" operator="out"/>
<feColorMatrix type="matrix" values="0 0 0 0 0.403922 0 0 0 0 0.32549 0 0 0 0 0.945098 0 0 0 1 0"/>
<feBlend mode="normal" in2="BackgroundImageFix" result="effect1_dropShadow_2762_5466"/>
<feBlend mode="normal" in="SourceGraphic" in2="effect1_dropShadow_2762_5466" result="shape"/>
<feGaussianBlur stdDeviation="0.917947" result="effect2_foregroundBlur_2762_5466"/>
</filter>
<filter id="filter6_df_2762_5466" x="743.292" y="-9.84939" width="292.527" height="306.266" filterUnits="userSpaceOnUse" color-interpolation-filters="sRGB">
<feFlood flood-opacity="0" result="BackgroundImageFix"/>
<feColorMatrix in="SourceAlpha" type="matrix" values="0 0 0 0 0 0 0 0 0 0 0 0 0 0 0 0 0 0 127 0" result="hardAlpha"/>
<feOffset/>
<feGaussianBlur stdDeviation="4.58974"/>
<feComposite in2="hardAlpha" operator="out"/>
<feColorMatrix type="matrix" values="0 0 0 0 0.403922 0 0 0 0 0.32549 0 0 0 0 0.945098 0 0 0 1 0"/>
<feBlend mode="normal" in2="BackgroundImageFix" result="effect1_dropShadow_2762_5466"/>
<feBlend mode="normal" in="SourceGraphic" in2="effect1_dropShadow_2762_5466" result="shape"/>
<feGaussianBlur stdDeviation="0.458974" result="effect2_foregroundBlur_2762_5466"/>
</filter>
<filter id="filter7_df_2762_5466" x="787.247" y="20.6731" width="239.382" height="241.578" filterUnits="userSpaceOnUse" color-interpolation-filters="sRGB">
<feFlood flood-opacity="0" result="BackgroundImageFix"/>
<feColorMatrix in="SourceAlpha" type="matrix" values="0 0 0 0 0 0 0 0 0 0 0 0 0 0 0 0 0 0 127 0" result="hardAlpha"/>
<feOffset/>
<feGaussianBlur stdDeviation="4.58974"/>
<feComposite in2="hardAlpha" operator="out"/>
<feColorMatrix type="matrix" values="0 0 0 0 0.403922 0 0 0 0 0.32549 0 0 0 0 0.945098 0 0 0 1 0"/>
<feBlend mode="normal" in2="BackgroundImageFix" result="effect1_dropShadow_2762_5466"/>
<feBlend mode="normal" in="SourceGraphic" in2="effect1_dropShadow_2762_5466" result="shape"/>
<feGaussianBlur stdDeviation="0.458974" result="effect2_foregroundBlur_2762_5466"/>
</filter>
<filter id="filter8_df_2762_5466" x="822.502" y="44.4406" width="196.167" height="192.25" filterUnits="userSpaceOnUse" color-interpolation-filters="sRGB">
<feFlood flood-opacity="0" result="BackgroundImageFix"/>
<feColorMatrix in="SourceAlpha" type="matrix" values="0 0 0 0 0 0 0 0 0 0 0 0 0 0 0 0 0 0 127 0" result="hardAlpha"/>
<feOffset/>
<feGaussianBlur stdDeviation="4.58974"/>
<feComposite in2="hardAlpha" operator="out"/>
<feColorMatrix type="matrix" values="0 0 0 0 0.403922 0 0 0 0 0.32549 0 0 0 0 0.945098 0 0 0 1 0"/>
<feBlend mode="normal" in2="BackgroundImageFix" result="effect1_dropShadow_2762_5466"/>
<feBlend mode="normal" in="SourceGraphic" in2="effect1_dropShadow_2762_5466" result="shape"/>
<feGaussianBlur stdDeviation="0.458974" result="effect2_foregroundBlur_2762_5466"/>
</filter>
<filter id="filter9_df_2762_5466" x="850.667" y="58.7063" width="161.109" height="159.036" filterUnits="userSpaceOnUse" color-interpolation-filters="sRGB">
<feFlood flood-opacity="0" result="BackgroundImageFix"/>
<feColorMatrix in="SourceAlpha" type="matrix" values="0 0 0 0 0 0 0 0 0 0 0 0 0 0 0 0 0 0 127 0" result="hardAlpha"/>
<feOffset/>
<feGaussianBlur stdDeviation="4.58974"/>
<feComposite in2="hardAlpha" operator="out"/>
<feColorMatrix type="matrix" values="0 0 0 0 0.403922 0 0 0 0 0.32549 0 0 0 0 0.945098 0 0 0 1 0"/>
<feBlend mode="normal" in2="BackgroundImageFix" result="effect1_dropShadow_2762_5466"/>
<feBlend mode="normal" in="SourceGraphic" in2="effect1_dropShadow_2762_5466" result="shape"/>
<feGaussianBlur stdDeviation="0.458974" result="effect2_foregroundBlur_2762_5466"/>
</filter>
<radialGradient id="paint0_radial_2762_5466" cx="0" cy="0" r="1" gradientUnits="userSpaceOnUse" gradientTransform="translate(642.224 1476.8) rotate(-79.9112) scale(2032.89 1687.67)">
<stop stop-color="white" stop-opacity="0.1"/>
<stop offset="0.5" stop-color="white"/>
<stop offset="1" stop-color="#4728F5"/>
</radialGradient>
<radialGradient id="paint1_radial_2762_5466" cx="0" cy="0" r="1" gradientUnits="userSpaceOnUse" gradientTransform="translate(-82.8393 2361.79) rotate(-69.161) scale(2774.25 2375.64)">
<stop stop-color="#6753F1" stop-opacity="0.1"/>
<stop offset="0.5" stop-color="#6753F1"/>
<stop offset="1" stop-color="#6753F1" stop-opacity="0.1"/>
</radialGradient>
<radialGradient id="paint2_radial_2762_5466" cx="0" cy="0" r="1" gradientUnits="userSpaceOnUse" gradientTransform="translate(573.365 1629.64) rotate(-79.9113) scale(2332.92 1936.75)">
<stop stop-color="white" stop-opacity="0.1"/>
<stop offset="0.5" stop-color="white"/>
<stop offset="1" stop-color="#4728F5"/>
</radialGradient>
<radialGradient id="paint3_radial_2762_5466" cx="0" cy="0" r="1" gradientUnits="userSpaceOnUse" gradientTransform="translate(-258.71 2645.26) rotate(-69.1612) scale(3183.71 2726.26)">
<stop stop-color="#6753F1" stop-opacity="0.1"/>
<stop offset="0.5" stop-color="#6753F1"/>
<stop offset="1" stop-color="#6753F1" stop-opacity="0.1"/>
</radialGradient>
<radialGradient id="paint4_radial_2762_5466" cx="0" cy="0" r="1" gradientUnits="userSpaceOnUse" gradientTransform="translate(701.18 1170.4) rotate(-79.1443) scale(1590.26 1347.28)">
<stop stop-color="white" stop-opacity="0.1"/>
<stop offset="0.5" stop-color="white"/>
<stop offset="1" stop-color="#4728F5"/>
</radialGradient>
<radialGradient id="paint5_radial_2762_5466" cx="0" cy="0" r="1" gradientUnits="userSpaceOnUse" gradientTransform="translate(113.038 1868.65) rotate(-68.2508) scale(2185.92 1882.86)">
<stop stop-color="#6753F1" stop-opacity="0.1"/>
<stop offset="0.5" stop-color="#6753F1"/>
<stop offset="1" stop-color="#6753F1" stop-opacity="0.1"/>
</radialGradient>
<radialGradient id="paint6_radial_2762_5466" cx="0" cy="0" r="1" gradientUnits="userSpaceOnUse" gradientTransform="translate(750.676 933.902) rotate(-78.3995) scale(1243.52 1073.12)">
<stop stop-color="white" stop-opacity="0.1"/>
<stop offset="0.5" stop-color="white"/>
<stop offset="1" stop-color="#4728F5"/>
</radialGradient>
<radialGradient id="paint7_radial_2762_5466" cx="0" cy="0" r="1" gradientUnits="userSpaceOnUse" gradientTransform="translate(825.882 425.423) rotate(-78.1577) scale(541.559 445.396)">
<stop stop-color="#6753F1" stop-opacity="0.1"/>
<stop offset="0.5" stop-color="#6753F1"/>
<stop offset="1" stop-color="#6753F1" stop-opacity="0.1"/>
</radialGradient>
<radialGradient id="paint8_radial_2762_5466" cx="0" cy="0" r="1" gradientUnits="userSpaceOnUse" gradientTransform="translate(794.479 762.452) rotate(-78.3637) scale(996.539 860.72)">
<stop stop-color="white" stop-opacity="0.1"/>
<stop offset="0.5" stop-color="white"/>
<stop offset="1" stop-color="#4728F5"/>
</radialGradient>
<radialGradient id="paint9_radial_2762_5466" cx="0" cy="0" r="1" gradientUnits="userSpaceOnUse" gradientTransform="translate(854.976 355.036) rotate(-78.1217) scale(433.999 357.236)">
<stop stop-color="#6753F1" stop-opacity="0.1"/>
<stop offset="0.5" stop-color="#6753F1"/>
<stop offset="1" stop-color="#6753F1" stop-opacity="0.1"/>
</radialGradient>
<radialGradient id="paint10_radial_2762_5466" cx="0" cy="0" r="1" gradientUnits="userSpaceOnUse" gradientTransform="translate(830.628 631.241) rotate(-78.5593) scale(803.693 690.895)">
<stop stop-color="white" stop-opacity="0.1"/>
<stop offset="0.5" stop-color="white"/>
<stop offset="1" stop-color="#4728F5"/>
</radialGradient>
<radialGradient id="paint11_radial_2762_5466" cx="0" cy="0" r="1" gradientUnits="userSpaceOnUse" gradientTransform="translate(878.414 302.357) rotate(-78.3185) scale(350 286.762)">
<stop stop-color="#6753F1" stop-opacity="0.1"/>
<stop offset="0.5" stop-color="#6753F1"/>
<stop offset="1" stop-color="#6753F1" stop-opacity="0.1"/>
</radialGradient>
<radialGradient id="paint12_radial_2762_5466" cx="0" cy="0" r="1" gradientUnits="userSpaceOnUse" gradientTransform="translate(859.821 529.164) rotate(-78.831) scale(648.68 553.926)">
<stop stop-color="white" stop-opacity="0.1"/>
<stop offset="0.5" stop-color="white"/>
<stop offset="1" stop-color="#4728F5"/>
</radialGradient>
<radialGradient id="paint13_radial_2762_5466" cx="0" cy="0" r="1" gradientUnits="userSpaceOnUse" gradientTransform="translate(897.263 263.372) rotate(-78.5918) scale(282.479 229.924)">
<stop stop-color="#6753F1" stop-opacity="0.1"/>
<stop offset="0.5" stop-color="#6753F1"/>
<stop offset="1" stop-color="#6753F1" stop-opacity="0.1"/>
</radialGradient>
<radialGradient id="paint14_radial_2762_5466" cx="0" cy="0" r="1" gradientUnits="userSpaceOnUse" gradientTransform="translate(883.299 450.072) rotate(-79.1937) scale(524.426 443.733)">
<stop stop-color="white" stop-opacity="0.1"/>
<stop offset="0.5" stop-color="white"/>
<stop offset="1" stop-color="#4728F5"/>
</radialGradient>
<radialGradient id="paint15_radial_2762_5466" cx="0" cy="0" r="1" gradientUnits="userSpaceOnUse" gradientTransform="translate(912.352 234.833) rotate(-78.9566) scale(228.354 184.198)">
<stop stop-color="#6753F1" stop-opacity="0.1"/>
<stop offset="0.5" stop-color="#6753F1"/>
<stop offset="1" stop-color="#6753F1" stop-opacity="0.1"/>
</radialGradient>
<radialGradient id="paint16_radial_2762_5466" cx="0" cy="0" r="1" gradientUnits="userSpaceOnUse" gradientTransform="translate(902.154 389.092) rotate(-79.6696) scale(425.198 355.308)">
<stop stop-color="white" stop-opacity="0.1"/>
<stop offset="0.5" stop-color="white"/>
<stop offset="1" stop-color="#4728F5"/>
</radialGradient>
<radialGradient id="paint17_radial_2762_5466" cx="0" cy="0" r="1" gradientUnits="userSpaceOnUse" gradientTransform="translate(924.414 214.205) rotate(-79.4355) scale(185.13 147.505)">
<stop stop-color="#6753F1" stop-opacity="0.1"/>
<stop offset="0.5" stop-color="#6753F1"/>
<stop offset="1" stop-color="#6753F1" stop-opacity="0.1"/>
</radialGradient>
<radialGradient id="paint18_radial_2762_5466" cx="0" cy="0" r="1" gradientUnits="userSpaceOnUse" gradientTransform="translate(917.09 341.696) rotate(-80.2234) scale(345.417 284.289)">
<stop stop-color="white" stop-opacity="0.1"/>
<stop offset="0.5" stop-color="white"/>
<stop offset="1" stop-color="#4728F5"/>
</radialGradient>
<radialGradient id="paint19_radial_2762_5466" cx="0" cy="0" r="1" gradientUnits="userSpaceOnUse" gradientTransform="translate(933.946 199.284) rotate(-79.9927) scale(150.378 118.034)">
<stop stop-color="#6753F1" stop-opacity="0.1"/>
<stop offset="0.5" stop-color="#6753F1"/>
<stop offset="1" stop-color="#6753F1" stop-opacity="0.1"/>
</radialGradient>
<radialGradient id="paint20_radial_2762_5466" cx="0" cy="0" r="1" gradientUnits="userSpaceOnUse" gradientTransform="translate(1054.19 127.37) rotate(-178.859) scale(197.402 218.538)">
<stop stop-color="white" stop-opacity="0.1"/>
<stop offset="0.5" stop-color="white"/>
<stop offset="1" stop-color="#4728F5"/>
</radialGradient>
<radialGradient id="paint21_radial_2762_5466" cx="0" cy="0" r="1" gradientUnits="userSpaceOnUse" gradientTransform="translate(970.993 131.394) rotate(169.759) scale(77.8571 82.2623)">
<stop stop-color="white"/>
<stop offset="0.5" stop-color="white"/>
<stop offset="1" stop-color="white" stop-opacity="0.2"/>
</radialGradient>
</defs>
</svg>
