<svg width="100" height="100" viewBox="0 0 100 100" fill="none" xmlns="http://www.w3.org/2000/svg">
    <rect x="1.25" y="1.25" width="97.5" height="97.5" rx="48.75"
        fill="url(#paint0_linear_5001_27273)" />
    <rect x="1.25" y="1.25" width="97.5" height="97.5" rx="48.75" stroke="#34B7DD"
        stroke-width="2.5" />
    <path
        d="M24.0966 45.2398C23.0699 45.2398 22.1699 45.0598 21.3966 44.6998C20.6366 44.3264 20.0432 43.8064 19.6166 43.1398C19.1899 42.4731 18.9699 41.6931 18.9566 40.7998H21.0566C21.0699 41.3064 21.1899 41.7731 21.4166 42.1998C21.6566 42.6131 21.9966 42.9464 22.4366 43.1998C22.8899 43.4398 23.4432 43.5598 24.0966 43.5598C24.6566 43.5598 25.1366 43.4664 25.5366 43.2798C25.9499 43.0931 26.2632 42.8398 26.4766 42.5198C26.6899 42.1864 26.7966 41.8064 26.7966 41.3798C26.7966 40.8731 26.6832 40.4664 26.4566 40.1598C26.2299 39.8398 25.9232 39.5798 25.5366 39.3798C25.1499 39.1664 24.7032 38.9798 24.1966 38.8198C23.7032 38.6598 23.1832 38.4864 22.6366 38.2998C21.5432 37.9264 20.7299 37.4598 20.1966 36.8998C19.6632 36.3264 19.3966 35.5798 19.3966 34.6598C19.3966 33.8731 19.5766 33.1931 19.9366 32.6198C20.3099 32.0331 20.8366 31.5798 21.5166 31.2598C22.1966 30.9264 22.9899 30.7598 23.8966 30.7598C24.8032 30.7598 25.5966 30.9264 26.2766 31.2598C26.9566 31.5931 27.4899 32.0531 27.8766 32.6398C28.2632 33.2264 28.4632 33.9131 28.4766 34.6998H26.3566C26.3432 34.3398 26.2432 33.9864 26.0566 33.6398C25.8699 33.2931 25.5899 33.0131 25.2166 32.7998C24.8432 32.5731 24.3832 32.4598 23.8366 32.4598C23.3832 32.4464 22.9766 32.5198 22.6166 32.6798C22.2566 32.8398 21.9766 33.0731 21.7766 33.3798C21.5766 33.6864 21.4766 34.0531 21.4766 34.4798C21.4766 34.9064 21.5632 35.2531 21.7366 35.5198C21.9232 35.7731 22.1899 35.9931 22.5366 36.1798C22.8832 36.3664 23.2832 36.5398 23.7366 36.6998C24.2032 36.8464 24.7166 37.0131 25.2766 37.1998C25.9699 37.4264 26.5832 37.7064 27.1166 38.0398C27.6632 38.3598 28.0966 38.7798 28.4166 39.2998C28.7366 39.8064 28.8966 40.4598 28.8966 41.2598C28.8966 41.9531 28.7099 42.5998 28.3366 43.1998C27.9766 43.7998 27.4432 44.2931 26.7366 44.6798C26.0432 45.0531 25.1632 45.2398 24.0966 45.2398Z"
        fill="white" />
    <path
        d="M31.2353 44.9998V30.9998H33.5953L38.3753 40.4398L43.1553 30.9998H45.5153V44.9998H43.5153V34.4998L39.1553 43.0198H37.6153L33.2353 34.5198V44.9998H31.2353Z"
        fill="white" />
    <path
        d="M47.5233 44.9998L52.6633 30.9998H54.8433L59.9633 44.9998H57.8433L53.7433 33.3998L49.6033 44.9998H47.5233ZM49.8433 41.5398L50.4033 39.9398H56.9833L57.5233 41.5398H49.8433Z"
        fill="white" />
    <path d="M61.958 44.9998V30.9998H63.958V43.4198H70.358V44.9998H61.958Z" fill="white" />
    <path d="M72.6611 44.9998V30.9998H74.6611V43.4198H81.0611V44.9998H72.6611Z" fill="white" />
    <path
        d="M14.4004 71.9998V69.9838C15.6884 68.9758 16.9111 67.9584 18.0684 66.9318C19.2444 65.9051 20.2897 64.8878 21.2044 63.8798C22.1191 62.8531 22.8377 61.8544 23.3604 60.8838C23.8831 59.8944 24.1444 58.9518 24.1444 58.0558C24.1444 57.4211 24.0324 56.8331 23.8084 56.2918C23.5844 55.7504 23.2297 55.3118 22.7444 54.9758C22.2777 54.6211 21.6337 54.4438 20.8124 54.4438C20.0097 54.4438 19.3377 54.6211 18.7964 54.9758C18.2737 55.3304 17.8724 55.8064 17.5924 56.4038C17.3311 56.9824 17.2004 57.6264 17.2004 58.3358H14.5124C14.5311 56.9918 14.8204 55.8531 15.3804 54.9198C15.9404 53.9864 16.6964 53.2771 17.6484 52.7918C18.6004 52.3064 19.6737 52.0638 20.8684 52.0638C22.1004 52.0638 23.1644 52.2971 24.0604 52.7638C24.9751 53.2118 25.6844 53.8744 26.1884 54.7518C26.6924 55.6104 26.9444 56.6651 26.9444 57.9158C26.9444 58.8118 26.7671 59.7078 26.4124 60.6038C26.0577 61.4811 25.5724 62.3398 24.9564 63.1798C24.3591 64.0198 23.6871 64.8318 22.9404 65.6158C22.2124 66.3811 21.4564 67.1091 20.6724 67.7998C19.8884 68.4904 19.1417 69.1158 18.4324 69.6758H27.5604V71.9998H14.4004Z"
        fill="white" />
    <path
        d="M38.1663 72.3358C36.3929 72.3358 34.8623 71.9158 33.5743 71.0758C32.3049 70.2171 31.3249 69.0318 30.6343 67.5198C29.9623 65.9891 29.6263 64.2158 29.6263 62.1998C29.6263 60.1838 29.9623 58.4198 30.6343 56.9078C31.3249 55.3771 32.3049 54.1918 33.5743 53.3518C34.8436 52.4931 36.3649 52.0638 38.1383 52.0638C39.9116 52.0638 41.4236 52.4931 42.6743 53.3518C43.9436 54.1918 44.9143 55.3771 45.5863 56.9078C46.2769 58.4198 46.6223 60.1838 46.6223 62.1998C46.6223 64.2158 46.2769 65.9891 45.5863 67.5198C44.9143 69.0318 43.9436 70.2171 42.6743 71.0758C41.4236 71.9158 39.9209 72.3358 38.1663 72.3358ZM38.1383 69.8438C39.2396 69.8438 40.2103 69.5358 41.0503 68.9198C41.8903 68.3038 42.5529 67.4264 43.0383 66.2878C43.5236 65.1491 43.7663 63.7864 43.7663 62.1998C43.7663 60.6131 43.5236 59.2504 43.0383 58.1118C42.5529 56.9731 41.8903 56.1051 41.0503 55.5078C40.2103 54.8918 39.2396 54.5838 38.1383 54.5838C37.0556 54.5838 36.0849 54.8918 35.2263 55.5078C34.3676 56.1051 33.6956 56.9731 33.2103 58.1118C32.7436 59.2504 32.5103 60.6131 32.5103 62.1998C32.5103 63.7864 32.7436 65.1491 33.2103 66.2878C33.6956 67.4264 34.3676 68.3038 35.2263 68.9198C36.0849 69.5358 37.0556 69.8438 38.1383 69.8438Z"
        fill="white" />
    <path
        d="M57.5803 72.3358C55.807 72.3358 54.2763 71.9158 52.9883 71.0758C51.719 70.2171 50.739 69.0318 50.0483 67.5198C49.3763 65.9891 49.0403 64.2158 49.0403 62.1998C49.0403 60.1838 49.3763 58.4198 50.0483 56.9078C50.739 55.3771 51.719 54.1918 52.9883 53.3518C54.2577 52.4931 55.779 52.0638 57.5523 52.0638C59.3257 52.0638 60.8377 52.4931 62.0883 53.3518C63.3577 54.1918 64.3283 55.3771 65.0003 56.9078C65.691 58.4198 66.0363 60.1838 66.0363 62.1998C66.0363 64.2158 65.691 65.9891 65.0003 67.5198C64.3283 69.0318 63.3577 70.2171 62.0883 71.0758C60.8377 71.9158 59.335 72.3358 57.5803 72.3358ZM57.5523 69.8438C58.6537 69.8438 59.6243 69.5358 60.4643 68.9198C61.3043 68.3038 61.967 67.4264 62.4523 66.2878C62.9377 65.1491 63.1803 63.7864 63.1803 62.1998C63.1803 60.6131 62.9377 59.2504 62.4523 58.1118C61.967 56.9731 61.3043 56.1051 60.4643 55.5078C59.6243 54.8918 58.6537 54.5838 57.5523 54.5838C56.4697 54.5838 55.499 54.8918 54.6403 55.5078C53.7817 56.1051 53.1097 56.9731 52.6243 58.1118C52.1577 59.2504 51.9243 60.6131 51.9243 62.1998C51.9243 63.7864 52.1577 65.1491 52.6243 66.2878C53.1097 67.4264 53.7817 68.3038 54.6403 68.9198C55.499 69.5358 56.4697 69.8438 57.5523 69.8438Z"
        fill="white" />
    <path
        d="M76.9944 72.3358C75.2211 72.3358 73.6904 71.9158 72.4024 71.0758C71.1331 70.2171 70.1531 69.0318 69.4624 67.5198C68.7904 65.9891 68.4544 64.2158 68.4544 62.1998C68.4544 60.1838 68.7904 58.4198 69.4624 56.9078C70.1531 55.3771 71.1331 54.1918 72.4024 53.3518C73.6717 52.4931 75.1931 52.0638 76.9664 52.0638C78.7397 52.0638 80.2517 52.4931 81.5024 53.3518C82.7717 54.1918 83.7424 55.3771 84.4144 56.9078C85.1051 58.4198 85.4504 60.1838 85.4504 62.1998C85.4504 64.2158 85.1051 65.9891 84.4144 67.5198C83.7424 69.0318 82.7717 70.2171 81.5024 71.0758C80.2517 71.9158 78.7491 72.3358 76.9944 72.3358ZM76.9664 69.8438C78.0677 69.8438 79.0384 69.5358 79.8784 68.9198C80.7184 68.3038 81.3811 67.4264 81.8664 66.2878C82.3517 65.1491 82.5944 63.7864 82.5944 62.1998C82.5944 60.6131 82.3517 59.2504 81.8664 58.1118C81.3811 56.9731 80.7184 56.1051 79.8784 55.5078C79.0384 54.8918 78.0677 54.5838 76.9664 54.5838C75.8837 54.5838 74.9131 54.8918 74.0544 55.5078C73.1957 56.1051 72.5237 56.9731 72.0384 58.1118C71.5717 59.2504 71.3384 60.6131 71.3384 62.1998C71.3384 63.7864 71.5717 65.1491 72.0384 66.2878C72.5237 67.4264 73.1957 68.3038 74.0544 68.9198C74.9131 69.5358 75.8837 69.8438 76.9664 69.8438Z"
        fill="white" />
    <defs>
        <linearGradient id="paint0_linear_5001_27273" x1="50" y1="0" x2="50" y2="100"
            gradientUnits="userSpaceOnUse">
            <stop stop-color="#34284B" />
            <stop offset="0.5" stop-color="#555772" />
            <stop offset="1" stop-color="#B1855F" />
        </linearGradient>
    </defs>
</svg>