<svg width="256" height="256" viewBox="0 0 256 256" fill="none" xmlns="http://www.w3.org/2000/svg">
<rect width="256" height="256" rx="128" fill="url(#paint0_linear_4418_857)"/>
<path d="M129 181V195" stroke="white" stroke-width="9" stroke-linecap="round" stroke-linejoin="round"/>
<path d="M129 55V69" stroke="white" stroke-width="9" stroke-linecap="round" stroke-linejoin="round"/>
<path d="M164 181V195" stroke="white" stroke-width="9" stroke-linecap="round" stroke-linejoin="round"/>
<path d="M164 55V69" stroke="white" stroke-width="9" stroke-linecap="round" stroke-linejoin="round"/>
<path d="M59 125H73" stroke="white" stroke-width="9" stroke-linecap="round" stroke-linejoin="round"/>
<path d="M59 160H73" stroke="white" stroke-width="9" stroke-linecap="round" stroke-linejoin="round"/>
<path d="M59 90H73" stroke="white" stroke-width="9" stroke-linecap="round" stroke-linejoin="round"/>
<path d="M185 125H199" stroke="white" stroke-width="9" stroke-linecap="round" stroke-linejoin="round"/>
<path d="M185 160H199" stroke="white" stroke-width="9" stroke-linecap="round" stroke-linejoin="round"/>
<path d="M185 90H199" stroke="white" stroke-width="9" stroke-linecap="round" stroke-linejoin="round"/>
<path d="M94 181V195" stroke="white" stroke-width="9" stroke-linecap="round" stroke-linejoin="round"/>
<path d="M94 55V69" stroke="white" stroke-width="9" stroke-linecap="round" stroke-linejoin="round"/>
<path d="M171 69H87C79.268 69 73 75.268 73 83V167C73 174.732 79.268 181 87 181H171C178.732 181 185 174.732 185 167V83C185 75.268 178.732 69 171 69Z" stroke="white" stroke-width="9" stroke-linecap="round" stroke-linejoin="round"/>
<path d="M150 97H108C104.134 97 101 100.134 101 104V146C101 149.866 104.134 153 108 153H150C153.866 153 157 149.866 157 146V104C157 100.134 153.866 97 150 97Z" fill="white" stroke="white" stroke-width="9" stroke-linecap="round" stroke-linejoin="round"/>
<defs>
<linearGradient id="paint0_linear_4418_857" x1="-65.5" y1="-218.5" x2="-76.5" y2="360.5" gradientUnits="userSpaceOnUse">
<stop stop-color="#5CC3BB"/>
<stop offset="0.5" stop-color="#0F766E"/>
<stop offset="1" stop-color="#002A22"/>
</linearGradient>
</defs>
</svg>
