<svg width="100" height="100" viewBox="0 0 100 100" fill="none" xmlns="http://www.w3.org/2000/svg">
<circle cx="50" cy="50" r="50" fill="white"/>
<g clip-path="url(#clip0_8614_1647)">
<mask id="mask0_8614_1647" style="mask-type:luminance" maskUnits="userSpaceOnUse" x="11" y="18" width="27" height="62">
<path fill-rule="evenodd" clip-rule="evenodd" d="M11 18.395H37.8275V79.5084H11V18.395Z" fill="white"/>
</mask>
<g mask="url(#mask0_8614_1647)">
<path d="M33.5056 22.8946C35.0473 21.1485 36.4652 19.671 37.8156 18.4174C15.0168 17.6898 21.6561 34.0875 14.184 50.7314C5.63165 69.9161 15.1968 77.225 29.4433 79.5084C27.4538 77.1504 25.8303 74.5094 24.6269 71.6734C15.4331 60.1111 19.1579 39.0348 33.5056 22.8946Z" fill="#EFE812"/>
</g>
<path d="M88.3646 43.3329C85.6723 50.3388 81.7771 56.8263 76.8527 62.5064C72.9049 67.2785 68.176 71.3539 62.8651 74.5612C56.6971 78.4487 49.5284 80.4743 42.2268 80.3927C37.9639 80.4308 33.7046 80.1351 29.4883 79.5084C31.8292 82.2898 34.7314 84.5511 38.0069 86.1458C58.6226 96.0628 59.9167 77.6504 81.7253 68.3043C93.9687 63.0548 94.0137 52.8021 88.3534 43.3329" fill="#EDE70A"/>
<path d="M62.8663 24.193C65.8508 24.7126 68.7265 25.7265 71.3737 27.1927C78.3084 31.0709 84.1516 36.6211 88.3659 43.3329C92.0794 32.9234 90.3465 24.7526 82.233 23.2751C73.298 21.6522 66.321 21.1261 59.6142 16.4698C51.3544 10.7614 44.1074 12.6195 37.8281 18.4286L39.1898 18.4846C47.8997 18.9994 56.227 20.7232 62.8213 24.1706" fill="#EDE70A"/>
<path d="M33.5063 22.8946C19.1586 39.0348 15.4338 60.1111 24.6726 71.6734C22.5354 66.6543 21.6027 61.2092 21.9484 55.7694C22.2941 50.3296 23.9088 45.0446 26.6644 40.3332C34.4403 27.4389 50.0484 21.8425 62.8657 24.193C56.2264 20.7008 47.8991 19.0219 39.2342 18.507L37.8725 18.4398C36.4771 19.7158 35.0592 21.1485 33.5063 22.8946Z" fill="#DEC21C"/>
<path d="M71.3726 27.1702C68.724 25.7119 65.8484 24.7055 62.8652 24.1929C71.5977 28.7596 77.393 36.5051 77.393 48.7502C77.3424 53.9192 75.9853 58.9924 73.4465 63.5029C70.9078 68.0134 67.269 71.8161 62.8652 74.5611C68.1787 71.3573 72.9082 67.2814 76.8529 62.5063C81.7773 56.8262 85.6725 50.3387 88.3648 43.3328C84.1535 36.6128 78.31 31.0547 71.3726 27.1702Z" fill="#E5CB22"/>
<path d="M62.8647 24.1929C50.0474 21.8424 34.4393 27.4389 26.6634 40.2772C23.8962 44.9946 22.2752 50.2898 21.9294 55.7406C21.5836 61.1915 22.5226 66.6473 24.6716 71.6733C25.8708 74.5116 27.4946 77.1531 29.4879 79.5084C33.7042 80.1351 37.9636 80.4307 42.2265 80.3926C49.528 80.4742 56.6968 78.4486 62.8647 74.5611C67.2692 71.8169 70.9085 68.0144 73.4474 63.5037C75.9862 58.9931 77.3429 53.9194 77.3925 48.7502C77.3925 36.5051 71.5971 28.7596 62.8647 24.1929ZM61.4243 68.7408C56.6839 71.7693 50.9306 72.8078 45.4226 71.629C39.9145 70.4502 35.0998 67.1501 32.0312 62.4503C25.6619 52.6789 28.8128 40.0645 38.3667 33.3487C49.0571 25.7935 62.7634 28.7708 67.7598 39.6392C72.6324 50.2277 71.2933 62.4615 61.4243 68.7408Z" fill="#CCA727"/>
</g>
<defs>
<clipPath id="clip0_8614_1647">
<rect width="81" height="76" fill="white" transform="translate(11 13)"/>
</clipPath>
</defs>
</svg>
