<svg width="100" height="100" viewBox="0 0 100 100" fill="none" xmlns="http://www.w3.org/2000/svg">
<circle cx="50" cy="50" r="50" fill="#FECB17"/>
<path d="M80.7857 27L80.7833 27.0065L74.4745 36.7738C76.4045 40.58 77.499 44.8812 77.499 49.4404C77.499 64.9384 64.9315 77.5021 49.4289 77.5021C44.8742 77.5021 40.5769 76.4108 36.7733 74.486L27 80.8008C33.3211 85.3271 41.0605 88 49.4288 88C70.7311 88 88 70.7363 88 49.4404C88 41.0665 85.3214 33.3225 80.7857 27Z" fill="#030E24"/>
<path d="M49.4744 69C59.2085 69 67.3012 62.1009 69 52.9981C65.9192 52.3492 62.7256 52 59.448 52C49.5795 52 40.4529 55.1064 33 60.3665C36.5679 65.5748 42.6149 69 49.4744 69Z" fill="#030E24"/>
<path d="M59.1448 48.2419C62.5186 48.2419 65.8049 48.6082 68.9741 49.2866C68.9741 49.2844 68.9743 49.2822 68.9743 49.2799C68.9743 38.6612 60.2961 30.0531 49.5911 30.0531C38.8862 30.0531 30.208 38.6612 30.208 49.2799C30.208 50.1523 30.2735 51.0088 30.3876 51.8501C30.3856 51.8516 30.3838 51.8527 30.3818 51.8542C25.5007 55.5313 23.186 58.4451 23.1126 58.5383C22.0794 55.6412 21.5065 52.5288 21.5065 49.2799C21.5065 33.8943 34.0804 21.4218 49.5911 21.4218C54.1331 21.4218 58.4194 22.4979 62.2157 24.3969L72 18.1246C65.6814 13.6448 57.9499 11 49.5911 11C28.2779 11 11 28.1385 11 49.2799C11 57.7892 13.8034 65.6457 18.5394 72C20.3688 68.7239 22.5894 65.6947 25.1385 62.9702C25.1385 62.9702 28.9449 59.0303 31.8615 57.0495C39.5196 51.5153 48.9446 48.2419 59.1448 48.2419Z" fill="#030E24"/>
</svg>
